<svg width="292" height="162" viewBox="0 0 292 162" fill="none" xmlns="http://www.w3.org/2000/svg">
<rect width="1728" height="1117" transform="translate(-717 -482)" fill="white"/>
<g filter="url(#filter0_di_1_2)">
<path d="M40.68 119V53.848C40.68 52.3973 40.3813 51.2027 39.784 50.264C39.272 49.24 38.376 48.088 37.096 46.808C35.816 45.528 34.792 44.888 34.024 44.888C32.3173 44.888 30.056 46.5947 27.24 50.008C27.496 52.1413 27.624 54.4027 27.624 56.792V119H9.96V64.216C9.96 56.9627 9.448 51.8853 8.424 48.984C7.48533 46.0827 5.43733 42.6267 2.28 38.616L17.64 27.864C20.3707 29.8267 22.3333 32.1733 23.528 34.904C29.672 30.2107 34.024 27.864 36.584 27.864C39.144 27.864 43.9653 31.1493 51.048 37.72C58.1307 31.1493 63.1227 27.864 66.024 27.864C68.1573 27.864 71.784 30.1253 76.904 34.648C82.1093 39.0853 85.352 42.2427 86.632 44.12C87.912 45.912 88.552 48.3013 88.552 51.288V119H70.888V53.848C70.888 52.2267 70.5893 50.9893 69.992 50.136C69.3947 49.1973 68.3707 48.088 66.92 46.808C65.5547 45.528 64.3173 44.888 63.208 44.888C62.184 44.888 60.52 46.296 58.216 49.112C58.3013 49.5387 58.344 50.264 58.344 51.288V119H40.68ZM167.32 30.68L116.12 151C115.011 151 112.664 150.061 109.08 148.184C105.496 146.392 103.149 144.771 102.04 143.32L153.24 23C154.349 23 156.696 23.9387 160.28 25.816C163.864 27.608 166.211 29.2293 167.32 30.68Z" fill="white"/>
<path d="M226.855 29.4V44.76H210.215V119H192.551V44.76H175.911V29.4H226.855ZM234.135 29.4H251.799V79.192C251.799 83.9707 252.055 87.5973 252.567 90.072C253.164 92.4613 254.444 95.1067 256.407 98.008C258.37 100.824 259.778 102.232 260.631 102.232C261.484 102.232 262.892 100.824 264.855 98.008C266.818 95.1067 268.055 92.4613 268.567 90.072C269.164 87.5973 269.463 83.9707 269.463 79.192V64.216C269.463 57.048 268.951 52.056 267.927 49.24C266.988 46.424 264.94 42.968 261.783 38.872L277.143 27.864C279.874 29.656 282.22 33.1547 284.183 38.36C286.146 43.48 287.127 49.624 287.127 56.792V77.912C287.127 84.568 286.487 90.0293 285.207 94.296C283.927 98.5627 280.258 104.024 274.199 110.68C268.226 117.251 263.703 120.536 260.631 120.536C257.559 120.536 252.994 117.251 246.935 110.68C240.962 104.024 237.335 98.5627 236.055 94.296C234.775 90.0293 234.135 84.568 234.135 77.912V29.4Z" fill="#FF7F50"/>
</g>
<defs>
<filter id="filter0_di_1_2" x="-1.72" y="23" width="292.847" height="136" filterUnits="userSpaceOnUse" color-interpolation-filters="sRGB">
<feFlood flood-opacity="0" result="BackgroundImageFix"/>
<feColorMatrix in="SourceAlpha" type="matrix" values="0 0 0 0 0 0 0 0 0 0 0 0 0 0 0 0 0 0 127 0" result="hardAlpha"/>
<feOffset dy="4"/>
<feGaussianBlur stdDeviation="2"/>
<feComposite in2="hardAlpha" operator="out"/>
<feColorMatrix type="matrix" values="0 0 0 0 0 0 0 0 0 0 0 0 0 0 0 0 0 0 0.25 0"/>
<feBlend mode="normal" in2="BackgroundImageFix" result="effect1_dropShadow_1_2"/>
<feBlend mode="normal" in="SourceGraphic" in2="effect1_dropShadow_1_2" result="shape"/>
<feColorMatrix in="SourceAlpha" type="matrix" values="0 0 0 0 0 0 0 0 0 0 0 0 0 0 0 0 0 0 127 0" result="hardAlpha"/>
<feOffset dy="4"/>
<feGaussianBlur stdDeviation="2"/>
<feComposite in2="hardAlpha" operator="arithmetic" k2="-1" k3="1"/>
<feColorMatrix type="matrix" values="0 0 0 0 0 0 0 0 0 0 0 0 0 0 0 0 0 0 0.25 0"/>
<feBlend mode="normal" in2="shape" result="effect2_innerShadow_1_2"/>
</filter>
</defs>
</svg>
